<svg xmlns="http://www.w3.org/2000/svg" width="198" height="151" viewBox="0 0 198 151"><rect width="100%" height="100%" fill="#DDDDDD"/><path fill="#999999" d="M48.05 82.76h3.51v2.5h-10.8v-2.5h3.96V71.38q0-.67.04-1.39l-2.81 2.35q-.24.19-.48.24-.24.04-.45 0-.2-.04-.37-.14-.16-.1-.24-.22l-1.05-1.45 5.95-5.06h2.74zM57.7 71.6q0 1.63.85 2.49.84.86 2.39.86.81 0 1.45-.26.63-.26 1.07-.7.43-.45.65-1.06.22-.6.22-1.3 0-.8-.24-1.43t-.69-1.06q-.44-.43-1.06-.66-.61-.23-1.34-.23-.76 0-1.37.25-.6.25-1.03.69-.44.45-.67 1.06-.23.62-.23 1.35m-1.63 13.66 6.06-7.57q.23-.29.43-.56.21-.27.4-.54-.68.44-1.49.66t-1.7.22q-1.01 0-1.98-.35-.98-.35-1.73-1.06-.76-.71-1.22-1.76-.47-1.04-.47-2.45 0-1.3.49-2.45.48-1.15 1.36-2.01.88-.87 2.11-1.37 1.22-.5 2.71-.5 1.5 0 2.69.48 1.2.47 2.04 1.32t1.3 2.04q.45 1.19.45 2.6 0 .91-.16 1.72-.15.81-.44 1.56-.28.75-.68 1.46-.41.72-.91 1.42l-4.47 6.37q-.23.32-.69.55-.45.22-1.03.22zm20.67-2.39q.82 0 1.44-.24.62-.23 1.05-.65t.64-1q.22-.58.22-1.26 0-1.6-.89-2.42-.9-.83-2.46-.83-1.57 0-2.46.83-.89.82-.89 2.42 0 .68.22 1.26.21.58.64 1 .42.42 1.04.65.63.24 1.45.24m0-14.84q-.74 0-1.28.23t-.9.62q-.36.38-.53.88t-.17 1.05q0 .59.15 1.13.14.55.47.97.34.43.9.69.55.25 1.36.25t1.36-.25q.56-.26.89-.69.34-.42.48-.97.14-.54.14-1.13 0-.55-.17-1.05-.18-.5-.53-.88-.35-.39-.89-.62t-1.28-.23m3.29 7.05q1.79.58 2.64 1.78.85 1.19.85 2.92 0 1.3-.5 2.35-.49 1.05-1.38 1.79-.89.75-2.14 1.15-1.25.41-2.76.41t-2.76-.41q-1.25-.4-2.14-1.15-.89-.74-1.39-1.79-.49-1.05-.49-2.35 0-1.73.85-2.92.85-1.2 2.63-1.78-1.41-.59-2.12-1.69-.71-1.09-.71-2.63 0-1.11.45-2.06.45-.96 1.26-1.67t1.94-1.11 2.48-.4 2.48.4q1.12.4 1.93 1.11t1.27 1.67q.45.95.45 2.06 0 1.54-.71 2.63-.71 1.1-2.13 1.69m25.3 5.71-1.77 1.74-4.57-4.57-4.62 4.6-1.77-1.74 4.62-4.63-4.4-4.4 1.75-1.76 4.4 4.4 4.38-4.37 1.78 1.75-4.39 4.39zm18.48 1.97h3.51v2.5h-10.8v-2.5h3.96V71.38q0-.67.04-1.39l-2.81 2.35q-.24.19-.48.24-.23.04-.44 0t-.37-.14q-.17-.1-.25-.22l-1.05-1.45 5.95-5.06h2.74zm11.37-14-.69 4.07q.65-.14 1.24-.2.6-.06 1.15-.06 1.54 0 2.72.46 1.17.46 1.97 1.27.79.81 1.2 1.89.4 1.09.4 2.35 0 1.55-.54 2.83-.55 1.28-1.52 2.2-.97.91-2.3 1.41t-2.9.5q-.92 0-1.74-.19-.83-.19-1.55-.51t-1.33-.73q-.62-.41-1.1-.87l1.02-1.42q.33-.46.85-.46.34 0 .69.22t.8.47q.46.26 1.07.48.61.21 1.48.21.92 0 1.62-.3.7-.29 1.17-.83.46-.53.7-1.26.23-.74.23-1.6 0-1.6-.92-2.5-.92-.89-2.73-.89-1.39 0-2.85.51l-2.08-.59 1.62-9.48h9.64v1.42q0 .71-.45 1.16-.44.44-1.51.44zm19.95 14h3.51v2.5h-10.8v-2.5h3.96V71.38q0-.67.04-1.39l-2.81 2.35q-.24.19-.48.24-.23.04-.44 0t-.37-.14q-.17-.1-.25-.22l-1.05-1.45 5.95-5.06h2.74z"/></svg>