<svg xmlns="http://www.w3.org/2000/svg" width="196" height="151" viewBox="0 0 196 151"><rect width="100%" height="100%" fill="#DDDDDD"/><path fill="#999999" d="M48.94 82.49h3.38v2.41h-10.4v-2.41h3.81V71.54q0-.65.03-1.34l-2.7 2.26q-.23.18-.46.23-.23.04-.43 0t-.36-.13q-.15-.1-.23-.22l-1.01-1.39 5.73-4.87h2.64zm9.29-10.75q0 1.58.81 2.4.82.83 2.31.83.78 0 1.39-.25t1.03-.68q.42-.42.63-1.01.22-.58.22-1.26 0-.77-.24-1.37-.23-.61-.66-1.02-.43-.42-1.02-.64t-1.3-.22q-.72 0-1.31.24-.58.24-1 .67t-.64 1.02-.22 1.29M56.66 84.9l5.84-7.29q.22-.28.41-.54.2-.26.38-.52-.65.42-1.43.63-.78.22-1.64.22-.97 0-1.91-.34t-1.66-1.02q-.73-.68-1.18-1.69t-.45-2.36q0-1.26.47-2.37.47-1.1 1.31-1.93.85-.83 2.03-1.32 1.18-.48 2.61-.48 1.45 0 2.6.46 1.15.45 1.96 1.27t1.25 1.97q.43 1.14.43 2.5 0 .88-.15 1.66t-.42 1.5-.66 1.41-.87 1.36l-4.31 6.14q-.22.31-.66.53-.44.21-1 .21zm24.73-18.8-5.58 6.83-.65.8q.54-.27 1.17-.42.64-.15 1.36-.15 1.07 0 2.08.35 1 .35 1.77 1.06t1.24 1.76q.46 1.06.46 2.46 0 1.31-.48 2.46t-1.35 2.01-2.1 1.35q-1.23.5-2.71.5-1.51 0-2.7-.48-1.2-.48-2.04-1.35-.85-.86-1.3-2.08-.45-1.21-.45-2.7 0-1.32.54-2.72t1.67-2.91l4.49-6.01q.23-.32.68-.54t1.04-.22zm-4.85 16.38q.76 0 1.41-.26.64-.26 1.1-.73.46-.46.72-1.09.26-.64.26-1.38 0-.8-.24-1.45-.25-.64-.71-1.09-.45-.45-1.09-.68-.63-.23-1.4-.23t-1.39.26q-.63.26-1.07.72t-.69 1.09-.25 1.36q0 .78.22 1.42.21.64.64 1.1.42.45 1.04.71.63.25 1.45.25m27.56-1.88-1.71 1.67-4.4-4.4-4.45 4.43-1.7-1.68 4.44-4.46-4.23-4.23 1.69-1.69 4.23 4.23 4.22-4.21 1.71 1.69-4.22 4.23zm17.79 1.89h3.38v2.41h-10.4v-2.41h3.81V71.54q0-.65.04-1.34l-2.7 2.26q-.24.18-.46.23-.23.04-.43 0t-.36-.13q-.16-.1-.23-.22l-1.02-1.39 5.73-4.87h2.64zm10.95-13.48-.66 3.92q.62-.13 1.19-.19t1.11-.06q1.48 0 2.61.44t1.9 1.22 1.16 1.83.39 2.26q0 1.49-.53 2.73-.53 1.23-1.46 2.11-.94.88-2.22 1.36t-2.79.48q-.88 0-1.68-.18-.79-.19-1.48-.49-.7-.31-1.29-.7-.59-.4-1.06-.84l.99-1.37q.31-.44.82-.44.32 0 .66.21t.77.45q.44.25 1.03.46t1.42.21q.89 0 1.56-.29.68-.29 1.13-.8t.67-1.22q.23-.71.23-1.54 0-1.54-.89-2.4t-2.63-.86q-1.34 0-2.74.49l-2.01-.57 1.56-9.13h9.29v1.37q0 .69-.43 1.11-.43.43-1.46.43zm19.21 13.48h3.38v2.41h-10.4v-2.41h3.81V71.54q0-.65.04-1.34l-2.7 2.26q-.24.18-.46.23-.23.04-.43 0t-.36-.13q-.16-.1-.23-.22l-1.02-1.39 5.73-4.87h2.64z"/></svg>